<?xml version="1.0" encoding="UTF-8"?>
<svg id="Horizontal" xmlns="http://www.w3.org/2000/svg" viewBox="0 0 500 500">
  <g>
    <path d="M90.833,214.282c-2.973,4.275-5.977,8.539-8.786,12.92-1.349,2.103-2.765,4.311-3.995,6.476-1.208,2.124-3.359,5.837-2.638,8.262,1.267,4.266,8.376,3.209,11.763,3.145,1.259-.024,2.521.022,3.781.006.857-.011,1.78-.182,2.648-.083.437.05.735.406.761.819l.241,11.63h-19.031c-.012-.134-.078-.25-.146-.364-2.342-3.897-4.755-7.778-7.014-11.72-1.811-3.159-2.551-5.284-.723-8.74,3.614-5.821,6.901-11.841,10.519-17.659,1.019-1.638,1.785-2.881,3.604-3.821.531-.275,2.08-.872,2.633-.872h6.384Z" fill="#333533"/>
    <path d="M117.533,223.306l8.245,13.716c1.111,2.267,1.067,4.816-.161,7.029l-11.511,19.265c-1.447,1.981-3.703,3.112-6.204,3.246-1.249.067-3.812.148-4.984-.004-.111-.014-.139.043-.118-.115,2.882-4.218,5.785-8.431,8.544-12.727,1.403-2.184,2.884-4.457,4.156-6.709,1.527-2.704,4.188-7.059.988-9.541-3.098-2.404-11.465-1.064-15.499-1.399-.655-.054-1.088-.262-1.088-.975.002-3.822.255-7.681.163-11.517l.125-.268h17.345Z" fill="#333533"/>
    <path d="M116.448,221.516c-5.472-.068-10.953.091-16.425.004-.712-.011-.75-.292-1.307.36l-14.663,21.424c-.115.067-1.29.156-1.532.156-1.041,0-2.635-.185-3.614-.548-2.85-1.058-1.526-3.732-.589-5.708,1.419-2.995,3.53-6.173,5.335-8.989,3.026-4.72,6.26-9.317,9.508-13.893l15.381-.041c2.788.313,4.642,1.764,6.073,3.996.49.765,1.434,2.181,1.77,2.953.042.097.085.178.063.289Z" fill="#333533"/>
    <path d="M76.781,259.324h18.75c.056,0,.303-.138.363-.192l13.211-21.041c.056-.096.126-.138.238-.159.232-.042.943-.084,1.203-.084,1.473,0,4.699.301,5.381,1.793.562,1.229-.45,3.308-1.016,4.463-1.353,2.76-3.264,5.603-4.934,8.212-3.076,4.806-6.286,9.542-9.59,14.203l-15.058.043c-2.685-.151-5.02-1.434-6.445-3.635l-2.103-3.602Z" fill="#333533"/>
  </g>
  <g>
    <path d="M153.982,257.457c-3.031,0-5.693-.679-7.985-2.034-2.293-1.355-4.067-3.25-5.324-5.683-1.256-2.432-1.884-5.284-1.884-8.554s.628-6.121,1.884-8.554c1.256-2.432,3.03-4.327,5.324-5.683,2.292-1.355,4.955-2.034,7.985-2.034,2.552,0,4.865.479,6.939,1.436,2.073.957,3.788,2.293,5.144,4.007,1.355,1.715,2.213,3.729,2.572,6.042h-6.759c-.399-1.634-1.316-2.951-2.751-3.948-1.436-.996-3.11-1.496-5.025-1.496-2.672,0-4.795.938-6.37,2.812-1.576,1.875-2.363,4.347-2.363,7.417s.787,5.554,2.363,7.447c1.575,1.895,3.698,2.841,6.37,2.841,1.915,0,3.589-.509,5.025-1.525,1.436-1.017,2.353-2.323,2.751-3.918h6.759c-.359,2.273-1.217,4.268-2.572,5.981-1.356,1.715-3.071,3.051-5.144,4.008-2.074.957-4.387,1.436-6.939,1.436Z" fill="#333533"/>
    <path d="M185.643,224.916c3.908,0,6.948,1.087,9.122,3.26,2.173,2.174,3.26,5.195,3.26,9.062v19.381h-6.161v-4.666h-.658c-.998,1.755-2.383,3.11-4.157,4.067-1.775.957-3.839,1.436-6.191,1.436-2.792,0-5.005-.718-6.64-2.153-1.635-1.436-2.452-3.489-2.452-6.161,0-3.509,1.564-6.141,4.695-7.896,3.13-1.754,8.165-2.671,15.104-2.751v-1.196c0-2.113-.568-3.788-1.705-5.024-1.136-1.236-2.702-1.854-4.695-1.854-1.715,0-3.161.449-4.337,1.346-1.177.897-1.865,2.164-2.063,3.798h-6.4c.518-3.429,1.983-6.061,4.396-7.896,2.412-1.834,5.373-2.751,8.883-2.751ZM183.191,252.312c2.592,0,4.636-.857,6.131-2.572,1.495-1.714,2.243-4.027,2.243-6.939v-.598c-4.706.041-8.156.549-10.349,1.525-2.193.978-3.29,2.463-3.29,4.457,0,1.316.458,2.333,1.375,3.051.917.718,2.213,1.077,3.888,1.077Z" fill="#333533"/>
    <path d="M215.552,217.917c-.957,0-1.436.479-1.436,1.436v6.46h6.999v5.623h-6.999v25.183h-6.46v-25.183h-5.862v-5.623h5.862v-7.238c0-2.153.508-3.739,1.525-4.755,1.017-1.017,2.602-1.525,4.755-1.525h7.178v5.623h-5.563Z" fill="#333533"/>
    <path d="M253.134,241.186v1.854h-23.867c.319,2.792,1.295,4.985,2.931,6.58,1.635,1.595,3.769,2.393,6.4,2.393,1.914,0,3.568-.428,4.965-1.286,1.396-.857,2.393-2.023,2.991-3.499h6.102c-.479,1.995-1.386,3.769-2.722,5.324-1.337,1.555-2.991,2.762-4.965,3.619-1.974.857-4.178,1.286-6.61,1.286-3.031,0-5.693-.679-7.985-2.034-2.294-1.355-4.078-3.25-5.354-5.683-1.276-2.432-1.914-5.284-1.914-8.554s.628-6.121,1.884-8.554c1.256-2.432,3-4.327,5.234-5.683,2.233-1.355,4.845-2.034,7.836-2.034,3.03,0,5.672.678,7.926,2.034,2.252,1.356,4.008,3.25,5.264,5.683,1.256,2.433,1.884,5.284,1.884,8.554ZM238.06,230.419c-2.433,0-4.426.768-5.981,2.303-1.555,1.536-2.493,3.659-2.812,6.371h17.646c-.32-2.711-1.256-4.835-2.812-6.371-1.555-1.535-3.569-2.303-6.042-2.303Z" fill="#333533"/>
    <path d="M261.671,256.619v-25.183h-5.383v-5.623h11.844v30.806h-6.46Z" fill="#333533"/>
    <path d="M291.699,224.916c2.113,0,3.978.469,5.593,1.405,1.615.938,2.88,2.253,3.798,3.948.917,1.695,1.375,3.679,1.375,5.952v20.397h-6.46v-17.706c0-2.312-.608-4.167-1.824-5.563-1.217-1.396-2.822-2.094-4.815-2.094-2.194,0-3.969.888-5.324,2.662-1.356,1.775-2.034,4.098-2.034,6.969v15.732h-6.46v-30.806h6.102v4.785h.658c.917-1.754,2.203-3.14,3.858-4.157,1.654-1.017,3.499-1.525,5.533-1.525Z" fill="#333533"/>
    <path d="M320.607,224.916c3.908,0,6.948,1.087,9.122,3.26,2.173,2.174,3.26,5.195,3.26,9.062v19.381h-6.161v-4.666h-.658c-.998,1.755-2.383,3.11-4.157,4.067-1.775.957-3.839,1.436-6.191,1.436-2.792,0-5.005-.718-6.64-2.153-1.635-1.436-2.452-3.489-2.452-6.161,0-3.509,1.564-6.141,4.695-7.896,3.13-1.754,8.165-2.671,15.104-2.751v-1.196c0-2.113-.568-3.788-1.705-5.024-1.136-1.236-2.702-1.854-4.695-1.854-1.715,0-3.161.449-4.337,1.346-1.177.897-1.865,2.164-2.063,3.798h-6.4c.518-3.429,1.983-6.061,4.396-7.896,2.412-1.834,5.373-2.751,8.883-2.751ZM318.155,252.312c2.592,0,4.636-.857,6.131-2.572,1.495-1.714,2.243-4.027,2.243-6.939v-.598c-4.706.041-8.156.549-10.349,1.525-2.193.978-3.29,2.463-3.29,4.457,0,1.316.458,2.333,1.375,3.051.917.718,2.213,1.077,3.888,1.077Z" fill="#333533"/>
    <path d="M362.908,211.876h6.46v44.324h-6.46v-4.486h-.598c-.877,1.596-2.124,2.881-3.739,3.858-1.615.977-3.539,1.465-5.772,1.465-2.593,0-4.885-.679-6.879-2.034-1.995-1.355-3.55-3.26-4.666-5.712-1.117-2.453-1.675-5.294-1.675-8.524s.558-6.071,1.675-8.524c1.116-2.453,2.671-4.356,4.666-5.712,1.994-1.355,4.286-2.034,6.879-2.034,2.153,0,4.038.469,5.652,1.405,1.615.938,2.861,2.184,3.739,3.739h.718v-17.766ZM354.474,251.056c2.512,0,4.536-.947,6.071-2.841,1.535-1.894,2.303-4.376,2.303-7.447s-.769-5.542-2.303-7.417c-1.536-1.874-3.559-2.812-6.071-2.812-2.473,0-4.477.938-6.012,2.812-1.536,1.875-2.303,4.347-2.303,7.417s.767,5.554,2.303,7.447c1.535,1.895,3.539,2.841,6.012,2.841Z" fill="#333533"/>
    <path d="M403.736,240.768v1.854h-23.867c.319,2.792,1.295,4.985,2.931,6.58,1.635,1.595,3.769,2.393,6.4,2.393,1.914,0,3.568-.428,4.965-1.286,1.396-.857,2.393-2.023,2.991-3.499h6.102c-.479,1.995-1.386,3.769-2.722,5.324-1.337,1.555-2.991,2.762-4.965,3.619-1.974.857-4.178,1.286-6.61,1.286-3.031,0-5.693-.679-7.985-2.034-2.294-1.355-4.078-3.25-5.354-5.683-1.276-2.432-1.914-5.284-1.914-8.554s.628-6.121,1.884-8.554c1.256-2.432,3-4.327,5.234-5.683,2.233-1.355,4.845-2.034,7.836-2.034,3.03,0,5.672.678,7.926,2.034,2.252,1.356,4.008,3.25,5.264,5.683,1.256,2.433,1.884,5.284,1.884,8.554ZM388.662,230.001c-2.433,0-4.426.768-5.981,2.303-1.555,1.536-2.493,3.659-2.812,6.371h17.646c-.32-2.711-1.256-4.835-2.812-6.371-1.555-1.535-3.569-2.303-6.042-2.303Z" fill="#333533"/>
    <path d="M429.201,225.395h7.297l-10.886,30.806h-8.674l-10.827-30.806h7.417l7.357,23.688h1.017l7.298-23.688Z" fill="#333533"/>
    <polygon points="257.723 221.443 256.288 217.854 269.508 211.872 271.541 217.495 257.723 221.443" fill="#333533"/>
    <rect x="198.025" y="250.842" width="1.778" height="5.777" fill="#333533"/>
    <rect x="332.989" y="250.842" width="1.778" height="5.777" fill="#333533"/>
  </g>
</svg>