<?xml version="1.0" encoding="UTF-8"?>
<svg id="Icone" xmlns="http://www.w3.org/2000/svg" viewBox="0 0 500 500">
  <path d="M232.189,203.142c-3.684,5.298-7.407,10.583-10.888,16.012-1.671,2.606-3.426,5.343-4.952,8.025-1.497,2.633-4.162,7.234-3.27,10.239,1.571,5.287,10.38,3.977,14.578,3.898,1.56-.03,3.125.027,4.685.008,1.063-.013,2.206-.225,3.282-.103.542.062.911.503.943,1.015l.299,14.413h-23.585c-.015-.166-.097-.31-.181-.451-2.902-4.83-5.893-9.639-8.693-14.524-2.244-3.915-3.162-6.548-.896-10.831,4.479-7.214,8.553-14.675,13.036-21.884,1.262-2.03,2.212-3.571,4.466-4.736.659-.34,2.578-1.08,3.264-1.08h7.911Z"/>
  <path d="M265.277,214.326l10.218,16.999c1.377,2.81,1.322,5.969-.2,8.71l-14.266,23.875c-1.793,2.455-4.589,3.857-7.689,4.023-1.548.083-4.724.184-6.176-.004-.138-.018-.172.053-.146-.143,3.572-5.227,7.17-10.449,10.588-15.773,1.738-2.707,3.574-5.524,5.151-8.314,1.893-3.351,5.19-8.748,1.225-11.824-3.84-2.979-14.208-1.319-19.208-1.734-.812-.067-1.349-.325-1.348-1.209.003-4.736.316-9.519.202-14.273l.154-.333h21.495Z"/>
  <path d="M263.934,212.108c-6.781-.084-13.574.112-20.355.005-.882-.014-.93-.362-1.62.446l-18.172,26.55c-.143.083-1.599.193-1.899.193-1.29,0-3.265-.229-4.479-.68-3.532-1.311-1.891-4.625-.73-7.074,1.758-3.711,4.374-7.651,6.612-11.14,3.75-5.849,7.757-11.546,11.783-17.217l19.061-.051c3.456.388,5.753,2.186,7.527,4.952.608.948,1.778,2.703,2.194,3.659.052.12.105.221.078.358Z"/>
  <path d="M214.774,258.962h23.237c.069,0,.375-.171.45-.238l16.373-26.076c.07-.119.156-.171.295-.197.287-.052,1.169-.104,1.491-.104,1.825,0,5.823.373,6.669,2.222.696,1.523-.557,4.099-1.26,5.531-1.677,3.42-4.045,6.944-6.114,10.177-3.813,5.956-7.79,11.826-11.885,17.601l-18.662.053c-3.327-.187-6.222-1.778-7.988-4.505l-2.606-4.464Z"/>
</svg>