<?xml version="1.0" encoding="UTF-8"?>
<svg id="Vertical" xmlns="http://www.w3.org/2000/svg" viewBox="0 0 500 500">
  <g>
    <path d="M253.38,163.075c-3.303,4.75-6.641,9.488-9.762,14.355-1.498,2.337-3.072,4.79-4.439,7.195-1.342,2.36-3.732,6.486-2.932,9.179,1.408,4.74,9.306,3.566,13.07,3.494,1.399-.026,2.801.025,4.201.007.953-.012,1.978-.202,2.943-.092.486.055.817.451.845.91l.268,12.922h-21.145c-.014-.149-.087-.278-.162-.404-2.602-4.33-5.283-8.642-7.793-13.021-2.012-3.51-2.835-5.871-.803-9.71,4.015-6.468,7.668-13.157,11.688-19.62,1.132-1.82,1.984-3.202,4.004-4.246.59-.305,2.311-.968,2.926-.968h7.093Z" fill="#fdda0d"/>
    <path d="M283.045,173.101l9.161,15.24c1.234,2.519,1.185,5.351-.179,7.809l-12.79,21.405c-1.608,2.201-4.114,3.458-6.894,3.607-1.388.075-4.235.165-5.537-.004-.124-.016-.155.048-.131-.128,3.203-4.686,6.428-9.368,9.493-14.141,1.558-2.427,3.204-4.952,4.618-7.454,1.697-3.004,4.653-7.843,1.098-10.601-3.442-2.671-12.738-1.183-17.22-1.555-.728-.06-1.209-.291-1.209-1.084.003-4.246.283-8.535.181-12.796l.138-.298h19.271Z" fill="#fdda0d"/>
    <path d="M281.84,171.113c-6.079-.076-12.17.101-18.249.005-.791-.013-.833-.324-1.452.4l-16.292,23.803c-.128.075-1.433.173-1.702.173-1.157,0-2.928-.205-4.016-.609-3.166-1.176-1.695-4.146-.655-6.342,1.576-3.327,3.922-6.859,5.928-9.988,3.362-5.244,6.955-10.352,10.564-15.436l17.089-.046c3.098.348,5.157,1.959,6.748,4.44.545.85,1.594,2.424,1.967,3.281.047.108.094.198.07.321Z" fill="#fdda0d"/>
    <path d="M237.767,213.12h20.833c.062,0,.336-.153.404-.214l14.679-23.378c.062-.107.14-.154.264-.176.258-.047,1.048-.093,1.337-.093,1.636,0,5.221.335,5.979,1.992.624,1.365-.5,3.675-1.129,4.959-1.504,3.066-3.626,6.225-5.482,9.124-3.418,5.339-6.984,10.602-10.655,15.78l-16.731.048c-2.983-.168-5.578-1.594-7.161-4.039l-2.337-4.003Z" fill="#fdda0d"/>
  </g>
  <g>
    <path d="M126.133,279.814c-3.031,0-5.693-.679-7.985-2.034-2.293-1.355-4.067-3.25-5.324-5.683-1.256-2.432-1.884-5.284-1.884-8.554s.628-6.121,1.884-8.554c1.256-2.432,3.03-4.327,5.324-5.683,2.292-1.355,4.955-2.034,7.985-2.034,2.552,0,4.865.479,6.939,1.436,2.073.957,3.788,2.293,5.144,4.007,1.355,1.715,2.213,3.729,2.572,6.042h-6.759c-.399-1.634-1.316-2.951-2.751-3.948-1.436-.996-3.11-1.496-5.025-1.496-2.672,0-4.795.938-6.37,2.812-1.576,1.875-2.363,4.347-2.363,7.417s.787,5.554,2.363,7.447c1.575,1.895,3.698,2.841,6.37,2.841,1.915,0,3.589-.509,5.025-1.525,1.436-1.017,2.353-2.323,2.751-3.918h6.759c-.359,2.273-1.217,4.268-2.572,5.981-1.356,1.715-3.071,3.051-5.144,4.008-2.074.957-4.387,1.436-6.939,1.436Z" fill="#333533"/>
    <path d="M157.794,247.274c3.908,0,6.948,1.087,9.122,3.26,2.173,2.174,3.26,5.195,3.26,9.062v19.381h-6.161v-4.666h-.658c-.998,1.755-2.383,3.11-4.157,4.067-1.775.957-3.839,1.436-6.191,1.436-2.792,0-5.005-.718-6.64-2.153-1.635-1.436-2.452-3.489-2.452-6.161,0-3.509,1.564-6.141,4.695-7.896,3.13-1.754,8.165-2.671,15.104-2.751v-1.196c0-2.113-.568-3.788-1.705-5.024-1.136-1.236-2.702-1.854-4.695-1.854-1.715,0-3.161.449-4.337,1.346-1.177.897-1.865,2.164-2.063,3.798h-6.4c.518-3.429,1.983-6.061,4.396-7.896,2.412-1.834,5.373-2.751,8.883-2.751ZM155.341,274.67c2.592,0,4.636-.857,6.131-2.572,1.495-1.714,2.243-4.027,2.243-6.939v-.598c-4.706.041-8.156.549-10.349,1.525-2.193.978-3.29,2.463-3.29,4.457,0,1.316.458,2.333,1.375,3.051.917.718,2.213,1.077,3.888,1.077Z" fill="#333533"/>
    <path d="M187.702,240.275c-.957,0-1.436.479-1.436,1.436v6.46h6.999v5.623h-6.999v25.183h-6.46v-25.183h-5.862v-5.623h5.862v-7.238c0-2.153.508-3.739,1.525-4.755,1.017-1.017,2.602-1.525,4.755-1.525h7.178v5.623h-5.563Z" fill="#333533"/>
    <path d="M225.284,263.544v1.854h-23.867c.319,2.792,1.295,4.985,2.931,6.58,1.635,1.595,3.769,2.393,6.4,2.393,1.914,0,3.568-.428,4.965-1.286,1.396-.857,2.393-2.023,2.991-3.499h6.102c-.479,1.995-1.386,3.769-2.722,5.324-1.337,1.555-2.991,2.762-4.965,3.619-1.974.857-4.178,1.286-6.61,1.286-3.031,0-5.693-.679-7.985-2.034-2.294-1.355-4.078-3.25-5.354-5.683-1.276-2.432-1.914-5.284-1.914-8.554s.628-6.121,1.884-8.554c1.256-2.432,3-4.327,5.234-5.683,2.233-1.355,4.845-2.034,7.836-2.034,3.03,0,5.672.678,7.926,2.034,2.252,1.356,4.008,3.25,5.264,5.683,1.256,2.433,1.884,5.284,1.884,8.554ZM210.21,252.777c-2.433,0-4.426.768-5.981,2.303-1.555,1.536-2.493,3.659-2.812,6.371h17.646c-.32-2.711-1.256-4.835-2.812-6.371-1.555-1.535-3.569-2.303-6.042-2.303Z" fill="#333533"/>
    <path d="M233.822,278.977v-25.183h-5.383v-5.623h11.844v30.806h-6.46Z" fill="#333533"/>
    <path d="M263.849,247.274c2.113,0,3.978.469,5.593,1.405,1.615.938,2.88,2.253,3.798,3.948.917,1.695,1.375,3.679,1.375,5.952v20.397h-6.46v-17.706c0-2.312-.608-4.167-1.824-5.563-1.217-1.396-2.822-2.094-4.815-2.094-2.194,0-3.969.888-5.324,2.662-1.356,1.775-2.034,4.098-2.034,6.969v15.732h-6.46v-30.806h6.102v4.785h.658c.917-1.754,2.203-3.14,3.858-4.157,1.654-1.017,3.499-1.525,5.533-1.525Z" fill="#333533"/>
    <path d="M292.758,247.274c3.908,0,6.948,1.087,9.122,3.26,2.173,2.174,3.26,5.195,3.26,9.062v19.381h-6.161v-4.666h-.658c-.998,1.755-2.383,3.11-4.157,4.067-1.775.957-3.839,1.436-6.191,1.436-2.792,0-5.005-.718-6.64-2.153-1.635-1.436-2.452-3.489-2.452-6.161,0-3.509,1.564-6.141,4.695-7.896,3.13-1.754,8.165-2.671,15.104-2.751v-1.196c0-2.113-.568-3.788-1.705-5.024-1.136-1.236-2.702-1.854-4.695-1.854-1.715,0-3.161.449-4.337,1.346-1.177.897-1.865,2.164-2.063,3.798h-6.4c.518-3.429,1.983-6.061,4.396-7.896,2.412-1.834,5.373-2.751,8.883-2.751ZM290.305,274.67c2.592,0,4.636-.857,6.131-2.572,1.495-1.714,2.243-4.027,2.243-6.939v-.598c-4.706.041-8.156.549-10.349,1.525-2.193.978-3.29,2.463-3.29,4.457,0,1.316.458,2.333,1.375,3.051.917.718,2.213,1.077,3.888,1.077Z" fill="#333533"/>
    <path d="M335.059,234.234h6.46v44.324h-6.46v-4.486h-.598c-.877,1.596-2.124,2.881-3.739,3.858-1.615.977-3.539,1.465-5.772,1.465-2.593,0-4.885-.679-6.879-2.034-1.995-1.355-3.55-3.26-4.666-5.712-1.117-2.453-1.675-5.294-1.675-8.524s.558-6.071,1.675-8.524c1.116-2.453,2.671-4.356,4.666-5.712,1.994-1.355,4.286-2.034,6.879-2.034,2.153,0,4.038.469,5.652,1.405,1.615.938,2.861,2.184,3.739,3.739h.718v-17.766ZM326.625,273.414c2.512,0,4.536-.947,6.071-2.841,1.535-1.894,2.303-4.376,2.303-7.447s-.769-5.542-2.303-7.417c-1.536-1.874-3.559-2.812-6.071-2.812-2.473,0-4.477.938-6.012,2.812-1.536,1.875-2.303,4.347-2.303,7.417s.767,5.554,2.303,7.447c1.535,1.895,3.539,2.841,6.012,2.841Z" fill="#fdda0d"/>
    <path d="M375.887,263.126v1.854h-23.867c.319,2.792,1.295,4.985,2.931,6.58,1.635,1.595,3.769,2.393,6.4,2.393,1.914,0,3.568-.428,4.965-1.286,1.396-.857,2.393-2.023,2.991-3.499h6.102c-.479,1.995-1.386,3.769-2.722,5.324-1.337,1.555-2.991,2.762-4.965,3.619-1.974.857-4.178,1.286-6.61,1.286-3.031,0-5.693-.679-7.985-2.034-2.294-1.355-4.078-3.25-5.354-5.683-1.276-2.432-1.914-5.284-1.914-8.554s.628-6.121,1.884-8.554c1.256-2.432,3-4.327,5.234-5.683,2.233-1.355,4.845-2.034,7.836-2.034,3.03,0,5.672.678,7.926,2.034,2.252,1.356,4.008,3.25,5.264,5.683,1.256,2.433,1.884,5.284,1.884,8.554ZM360.813,252.358c-2.433,0-4.426.768-5.981,2.303-1.555,1.536-2.493,3.659-2.812,6.371h17.646c-.32-2.711-1.256-4.835-2.812-6.371-1.555-1.535-3.569-2.303-6.042-2.303Z" fill="#fdda0d"/>
    <path d="M401.351,247.753h7.297l-10.886,30.806h-8.674l-10.827-30.806h7.417l7.357,23.688h1.017l7.298-23.688Z" fill="#fdda0d"/>
    <polygon points="229.874 243.801 228.438 240.211 241.658 234.23 243.692 239.853 229.874 243.801" fill="#333533"/>
    <rect x="170.176" y="273.2" width="1.778" height="5.777" fill="#333533"/>
    <rect x="305.139" y="273.2" width="1.778" height="5.777" fill="#333533"/>
  </g>
</svg>